<svg width="20" height="20" viewBox="0 0 20 20" fill="none" xmlns="http://www.w3.org/2000/svg">
<g clip-path="url(#clip0_157_4215)">
<path fill-rule="evenodd" clip-rule="evenodd" d="M9.2998 9.00124H7.50213C6.39324 9.00124 5.49414 8.10214 5.49414 6.99325V1.99825C5.49414 0.895349 6.38825 0.000244141 7.49214 0.000244141H12.4871C13.596 0.000244141 14.4951 0.899345 14.4951 2.00824V6.99325C14.4951 8.10214 13.596 9.00124 12.4871 9.00124H10.7998V10.7488H15.9938C16.9595 10.7488 17.7429 11.5321 17.7429 12.4978V13.9863H17.9921C19.101 13.9863 20.0001 14.8854 20.0001 15.9943V17.9823C20.0001 19.0912 19.101 19.9903 17.9921 19.9903H16.0041C14.8952 19.9903 13.9961 19.0912 13.9961 17.9823V15.9843C13.9961 14.8814 14.8902 13.9863 15.9941 13.9863H16.2429V12.4978C16.2429 12.3605 16.1311 12.2488 15.9938 12.2488H10.7998V13.9961H10.9989C12.1078 13.9961 13.0069 14.8952 13.0069 16.0041V17.9921C13.0069 19.101 12.1078 20.0001 10.9989 20.0001H9.01092C7.90203 20.0001 7.00293 19.101 7.00293 17.9921V15.9941C7.00293 14.8912 7.89704 13.9961 9.00093 13.9961H9.2998V12.2488H4.00584C3.8686 12.2488 3.75684 12.3605 3.75684 12.4978V13.9961H3.996C5.1049 13.9961 6.004 14.8952 6.004 16.0041V17.9921C6.004 19.101 5.1049 20.0001 3.996 20.0001H2.00799C0.899101 20.0001 0 19.101 0 17.9921V15.9941C0 14.8912 0.894106 13.9961 1.998 13.9961H2.25684V12.4978C2.25684 11.5321 3.04017 10.7488 4.00584 10.7488H9.2998V9.00124ZM7.49214 2.00824V6.99325C7.49214 6.99925 7.49614 7.00324 7.50213 7.00324H12.4881C12.4931 7.00324 12.4981 6.99925 12.4981 6.99325L12.4971 2.00824C12.4971 2.00324 12.4921 1.99825 12.4871 1.99825H7.50213C7.49614 1.99825 7.49214 2.00324 7.49214 2.00824ZM1.998 17.9921V16.0041C1.998 15.9991 2.002 15.9941 2.00799 15.9941H3.996C4.001 15.9941 4.00599 15.9991 4.00599 16.0041L4.00699 17.9921C4.00699 17.9981 4.002 18.0021 3.997 18.0021H2.00799C2.002 18.0021 1.998 17.9981 1.998 17.9921ZM9.00093 17.9921V16.0041C9.00093 15.9991 9.00493 15.9941 9.01092 15.9941H10.9989C11.0039 15.9941 11.0089 15.9991 11.0089 16.0041L11.0099 17.9921C11.0099 17.9981 11.0049 18.0021 10.9999 18.0021H9.01092C9.00493 18.0021 9.00093 17.9981 9.00093 17.9921ZM15.9941 17.9823V15.9943C15.9941 15.9893 15.9981 15.9843 16.0041 15.9843H17.9921C17.9971 15.9843 18.0021 15.9893 18.0021 15.9943L18.0031 17.9823C18.0031 17.9883 17.9981 17.9923 17.9931 17.9923H16.0041C15.9981 17.9923 15.9941 17.9883 15.9941 17.9823Z" fill="black"/>
</g>
<defs>
<clipPath id="clip0_157_4215">
<rect width="20" height="20" fill="white"/>
</clipPath>
</defs>
</svg>
